#!OML:ASF F:\VICON\USERDATA\INSTALL\rory3\rory3.ASF
:FULLY-SPECIFIED
:DEGREES
305
root -0.173194 17.9365 -0.388392 2.90917 -10.4164 2.39191
lowerback -0.333034 -1.61485 -4.84563
upperback -1.74502 -2.15665 2.54202
thorax -1.33618 -1.00039 5.3649
lowerneck -33.57 -1.00079 -8.09615
upperneck 3.13842 1.00333 6.75943
head 5.8862 0.973228 3.69404
rclavicle -4.92466e-014 1.90833e-014
rhumerus -32.7709 -0.210041 -80.5354
rradius 30.5239
rwrist 19.6338
rhand -18.4057 8.56919
rfingers 7.12502
rthumb 7.87879 -21.264
lclavicle -4.92466e-014 1.90833e-014
lhumerus 55.7035 7.70751 48.495
lradius 99.1339
lwrist -16.7959
lhand -46.0782 19.6381
lfingers 7.12502
lthumb -18.8209 48.7476
rfemur -7.92763 8.99968 14.0927
rtibia 26.5446
rfoot -18.3246 -2.93612
rtoes 4.29423
lfemur 2.59454 -2.07034 -23.0176
ltibia 9.81851
lfoot -10.5382 6.56031
ltoes -14.1642
306
root -0.172902 17.9373 -0.390366 2.94696 -10.3957 2.39745
lowerback -0.388341 -1.68214 -4.86643
upperback -1.76744 -2.24393 2.61109
thorax -1.31373 -1.04374 5.44745
lowerneck -33.4019 -0.983509 -8.42803
upperneck 3.29306 1.11485 6.97466
head 5.9071 1.0386 3.83463
rclavicle -3.47283e-014 -8.74653e-015
rhumerus -32.7422 0.0408479 -80.5025
rradius 30.477
rwrist 19.5989
rhand -18.2931 8.58334
rfingers 7.12502
rthumb 7.98744 -21.2457
lclavicle -3.47283e-014 -8.74653e-015
lhumerus 55.2839 7.58649 48.4777
lradius 99.0837
lwrist -16.5373
lhand -45.9416 19.234
lfingers 7.12502
lthumb -18.6895 48.3562
rfemur -7.96555 8.96153 14.078
rtibia 26.5234
rfoot -18.2902 -2.95131
rtoes 4.19515
lfemur 2.5177 -2.09276 -23.0239
ltibia 9.87097
lfoot -10.5653 6.55218
ltoes -14.2431
307
root -0.172647 17.937 -0.392442 2.95317 -10.3648 2.42401
lowerback -0.422647 -1.71594 -4.91563
upperback -1.76238 -2.28756 2.64877
thorax -1.28038 -1.06597 5.51345
lowerneck -33.3795 -0.954544 -8.53263
upperneck 3.52421 1.19101 6.94431
head 5.97474 1.06811 3.85343
rclavicle -1.49803e-014 2.8625e-014
rhumerus -32.7045 0.232677 -80.4832
rradius 30.4314
rwrist 19.5869
rhand -18.2627 8.60626
rfingers 7.12502
rthumb 8.01681 -21.2217
lclavicle -1.49803e-014 2.8625e-014
lhumerus 54.9553 7.38887 48.4683
lradius 99.0437
lwrist -16.1913
lhand -45.6609 19.1537
lfingers 7.12502
lthumb -18.4195 48.3016
rfemur -7.96962 8.92928 14.0468
rtibia 26.5049
rfoot -18.2663 -2.94324
rtoes 4.36663
lfemur 2.47956 -2.1249 -23.0499
ltibia 9.89615
lfoot -10.5638 6.56808
ltoes -14.4386
308
root -0.173458 17.9393 -0.394689 2.98307 -10.3325 2.37789
lowerback -0.488427 -1.71824 -4.91696
upperback -1.72778 -2.28732 2.68249
thorax -1.20633 -1.06884 5.54642
lowerneck -33.1809 -0.956259 -8.65705
upperneck 3.44287 1.21611 7.01711
head 5.91976 1.08329 3.89709
rclavicle -4.29305e-014 -3.18055e-015
rhumerus -32.6088 0.270126 -80.4625
rradius 30.3597
rwrist 19.6631
rhand -18.2915 8.62683
rfingers 7.12502
rthumb 7.98905 -21.2022
lclavicle -4.29305e-014 -3.18055e-015
lhumerus 54.7036 7.11184 48.4827
lradius 99.005
lwrist -15.9303
lhand -45.3506 19.3439
lfingers 7.12502
lthumb -18.121 48.5198
rfemur -7.99919 8.86718 14.1032
rtibia 26.4833
rfoot -18.2175 -2.9792
rtoes 4.17161
lfemur 2.42719 -2.15592 -22.9897
ltibia 9.8978
lfoot -10.49 6.60078
ltoes -14.6413
309
root -0.173379 17.9414 -0.398373 3.02167 -10.2734 2.33337
lowerback -0.535632 -1.72974 -4.8749
upperback -1.70195 -2.30041 2.67463
thorax -1.15318 -1.07823 5.5119
lowerneck -32.9624 -0.950011 -8.6636
upperneck 3.35441 1.21207 7.01914
head 5.8629 1.07949 3.89362
rclavicle 1.17562e-014 1.19271e-014
rhumerus -32.55 0.246373 -80.4932
rradius 30.3231
rwrist 19.7715
rhand -18.3579 8.68351
rfingers 7.12502
rthumb 7.92494 -21.1479
lclavicle 1.17562e-014 1.19271e-014
lhumerus 54.4728 6.78835 48.4688
lradius 98.9501
lwrist -15.5137
lhand -45.0506 19.3448
lfingers 7.12502
lthumb -17.8323 48.5472
rfemur -8.03582 8.79256 14.1558
rtibia 26.4578
rfoot -18.1785 -3.01789
rtoes 3.93621
lfemur 2.3707 -2.21438 -22.924
ltibia 9.89438
lfoot -10.4593 6.54984
ltoes -14.183
310
root -0.173448 17.942 -0.400253 3.0066 -10.2296 2.36191
lowerback -0.547211 -1.7508 -4.89612
upperback -1.63841 -2.32789 2.64364
thorax -1.07787 -1.09576 5.48945
lowerneck -32.9806 -0.925698 -8.52759
upperneck 3.49661 1.21089 6.84036
head 5.91323 1.06306 3.81278
rclavicle 4.58789e-014 -5.56597e-015
rhumerus -32.4686 0.338545 -80.561
rradius 30.3889
rwrist 20.0123
rhand -18.5565 8.74581
rfingers 7.12502
rthumb 7.73324 -21.0928
lclavicle 4.58789e-014 -5.56597e-015
lhumerus 54.2681 6.54158 48.4477
lradius 98.8575
lwrist -15.2971
lhand -44.6035 19.7455
lfingers 7.12502
lthumb -17.4021 48.9866
rfemur -8.00423 8.76225 14.1302
rtibia 26.4241
rfoot -18.1491 -3.03694
rtoes 3.68087
lfemur 2.38466 -2.25855 -22.9495
ltibia 9.89075
lfoot -10.4895 6.48994
ltoes -13.6101
311
root -0.173621 17.9433 -0.401965 3.01854 -10.1987 2.36527
lowerback -0.602282 -1.76966 -4.91856
upperback -1.5738 -2.3503 2.64904
thorax -0.976205 -1.11145 5.50426
lowerneck -33.0019 -0.925305 -8.49779
upperneck 3.67886 1.20423 6.78782
head 5.97762 1.05403 3.7921
rclavicle 2.16862e-014 0
rhumerus -32.3739 0.358664 -80.5545
rradius 30.498
rwrist 20.5001
rhand -18.9922 8.82761
rfingers 7.12502
rthumb 7.31263 -21.026
lclavicle 2.16862e-014 0
lhumerus 54.0564 6.31049 48.4543
lradius 98.711
lwrist -15.378
lhand -43.9479 20.6722
lfingers 7.12502
lthumb -16.771 49.9679
rfemur -8.00713 8.76361 14.1341
rtibia 26.3941
rfoot -18.1346 -3.10822
rtoes 3.58157
lfemur 2.36719 -2.28972 -22.9505
ltibia 9.89783
lfoot -10.519 6.47931
ltoes -13.2997
312
root -0.173592 17.9443 -0.403547 3.04734 -10.1637 2.33014
lowerback -0.670119 -1.77711 -4.89413
upperback -1.5445 -2.35705 2.66365
thorax -0.907279 -1.11789 5.50248
lowerneck -32.8439 -0.931801 -8.59624
upperneck 3.77652 1.21447 6.83841
head 5.98893 1.05935 3.82539
rclavicle 2.0891e-014 -1.03368e-014
rhumerus -32.3279 0.268817 -80.5077
rradius 30.4913
rwrist 20.8855
rhand -19.252 8.96034
rfingers 7.12502
rthumb 7.06194 -20.9018
lclavicle 2.0891e-014 -1.03368e-014
lhumerus 53.7336 5.98694 48.4045
lradius 98.5794
lwrist -15.347
lhand -43.1245 21.8108
lfingers 7.12502
lthumb -15.9783 51.1718
rfemur -8.01983 8.76335 14.1745
rtibia 26.3707
rfoot -18.1305 -3.15389
rtoes 3.66745
lfemur 2.34968 -2.32353 -22.9113
ltibia 9.87994
lfoot -10.5138 6.47986
ltoes -13.1414
313
root -0.173971 17.9447 -0.405599 3.0675 -10.136 2.29961
lowerback -0.700194 -1.78433 -4.87928
upperback -1.54194 -2.36531 2.6826
thorax -0.886449 -1.12283 5.51266
lowerneck -32.643 -0.909389 -8.64665
upperneck 3.9082 1.2522 6.78606
head 6.00384 1.06775 3.819
rclavicle 4.90439e-014 -1.43125e-014
rhumerus -32.3213 0.329761 -80.5172
rradius 30.4118
rwrist 20.5965
rhand -19.0516 8.93106
rfingers 7.12502
rthumb 7.2553 -20.9246
lclavicle 4.90439e-014 -1.43125e-014
lhumerus 53.2932 5.5711 48.4
lradius 98.4429
lwrist -15.2173
lhand -42.5208 22.3247
lfingers 7.12502
lthumb -15.3969 51.7313
rfemur -8.02811 8.7827 14.2137
rtibia 26.354
rfoot -18.145 -3.18689
rtoes 3.68362
lfemur 2.33554 -2.35005 -22.8742
ltibia 9.85256
lfoot -10.4692 6.48605
ltoes -13.5178
314
root -0.174469 17.9451 -0.407841 3.05479 -10.1084 2.30456
lowerback -0.648461 -1.79246 -4.91188
upperback -1.58218 -2.37862 2.69075
thorax -0.953762 -1.12609 5.54242
lowerneck -32.5423 -0.869887 -8.54256
upperneck 4.33197 1.27202 6.59187
head 6.13191 1.05506 3.74313
rclavicle -9.00432e-015 1.03368e-014
rhumerus -32.395 0.392347 -80.5546
rradius 30.3051
rwrist 20.0762
rhand -18.5325 8.64459
rfingers 7.12502
rthumb 7.7564 -21.1931
lclavicle -9.00432e-015 1.03368e-014
lhumerus 52.7528 5.08734 48.4696
lradius 98.2881
lwrist -14.9753
lhand -42.8128 21.5684
lfingers 7.12502
lthumb -15.678 50.9532
rfemur -8.00766 8.79981 14.2184
rtibia 26.329
rfoot -18.1423 -3.23851
rtoes 3.56307
lfemur 2.3292 -2.37666 -22.8808
ltibia 9.85924
lfoot -10.3877 6.53952
ltoes -14.1668
